<mxfile host="app.diagrams.net" agent="Mozilla/5.0 (Windows NT 10.0; Win64; x64) AppleWebKit/537.36 (KHTML, like Gecko) Chrome/138.0.0.0 Safari/537.36" version="27.2.0" pages="2">
  <diagram name="Framework" id="izHdCFUZK2JU7I0uywET">
    <mxGraphModel dx="2650" dy="1847" grid="1" gridSize="10" guides="1" tooltips="1" connect="1" arrows="1" fold="1" page="1" pageScale="1" pageWidth="827" pageHeight="1169" math="0" shadow="0">
      <root>
        <mxCell id="0" />
        <mxCell id="1" parent="0" />
        <mxCell id="Np0CVXmdSU2NpfKUSfFp-21" value="" style="edgeStyle=orthogonalEdgeStyle;rounded=0;orthogonalLoop=1;jettySize=auto;html=1;" edge="1" parent="1" source="Np0CVXmdSU2NpfKUSfFp-4" target="Np0CVXmdSU2NpfKUSfFp-15">
          <mxGeometry relative="1" as="geometry" />
        </mxCell>
        <mxCell id="Np0CVXmdSU2NpfKUSfFp-4" value="ShmFifo" style="rounded=0;whiteSpace=wrap;html=1;" vertex="1" parent="1">
          <mxGeometry x="40" y="-40" width="120" height="60" as="geometry" />
        </mxCell>
        <mxCell id="Np0CVXmdSU2NpfKUSfFp-17" value="" style="edgeStyle=orthogonalEdgeStyle;rounded=0;orthogonalLoop=1;jettySize=auto;html=1;endArrow=block;endFill=0;" edge="1" parent="1" source="Np0CVXmdSU2NpfKUSfFp-1" target="Np0CVXmdSU2NpfKUSfFp-16">
          <mxGeometry relative="1" as="geometry" />
        </mxCell>
        <mxCell id="Np0CVXmdSU2NpfKUSfFp-1" value="nsq_api" style="rounded=1;whiteSpace=wrap;html=1;" vertex="1" parent="1">
          <mxGeometry x="-560" y="60" width="120" height="60" as="geometry" />
        </mxCell>
        <mxCell id="Np0CVXmdSU2NpfKUSfFp-28" value="" style="edgeStyle=orthogonalEdgeStyle;rounded=0;orthogonalLoop=1;jettySize=auto;html=1;endArrow=block;endFill=0;" edge="1" parent="1" source="Np0CVXmdSU2NpfKUSfFp-14" target="Np0CVXmdSU2NpfKUSfFp-16">
          <mxGeometry relative="1" as="geometry" />
        </mxCell>
        <mxCell id="Np0CVXmdSU2NpfKUSfFp-14" value="QuoteServerBase" style="rounded=1;whiteSpace=wrap;html=1;" vertex="1" parent="1">
          <mxGeometry x="-160" y="60" width="120" height="60" as="geometry" />
        </mxCell>
        <mxCell id="Np0CVXmdSU2NpfKUSfFp-20" value="" style="edgeStyle=orthogonalEdgeStyle;rounded=0;orthogonalLoop=1;jettySize=auto;html=1;endArrow=block;endFill=0;" edge="1" parent="1" source="Np0CVXmdSU2NpfKUSfFp-15" target="Np0CVXmdSU2NpfKUSfFp-14">
          <mxGeometry relative="1" as="geometry" />
        </mxCell>
        <mxCell id="Np0CVXmdSU2NpfKUSfFp-25" style="edgeStyle=orthogonalEdgeStyle;rounded=0;orthogonalLoop=1;jettySize=auto;html=1;endArrow=block;endFill=0;" edge="1" parent="1" source="Np0CVXmdSU2NpfKUSfFp-15" target="Np0CVXmdSU2NpfKUSfFp-22">
          <mxGeometry relative="1" as="geometry">
            <Array as="points">
              <mxPoint y="90" />
              <mxPoint y="270" />
            </Array>
          </mxGeometry>
        </mxCell>
        <mxCell id="Np0CVXmdSU2NpfKUSfFp-15" value="ServerBase" style="rounded=1;whiteSpace=wrap;html=1;" vertex="1" parent="1">
          <mxGeometry x="40" y="60" width="120" height="60" as="geometry" />
        </mxCell>
        <mxCell id="Np0CVXmdSU2NpfKUSfFp-16" value="NsqQuoteServer" style="rounded=0;whiteSpace=wrap;html=1;fillColor=#f5f5f5;strokeColor=#666666;fontColor=#333333;" vertex="1" parent="1">
          <mxGeometry x="-400" y="60" width="120" height="60" as="geometry" />
        </mxCell>
        <mxCell id="Np0CVXmdSU2NpfKUSfFp-27" value="" style="edgeStyle=orthogonalEdgeStyle;rounded=0;orthogonalLoop=1;jettySize=auto;html=1;endArrow=block;endFill=0;" edge="1" parent="1" source="Np0CVXmdSU2NpfKUSfFp-22" target="Np0CVXmdSU2NpfKUSfFp-24">
          <mxGeometry relative="1" as="geometry" />
        </mxCell>
        <mxCell id="Np0CVXmdSU2NpfKUSfFp-32" style="edgeStyle=orthogonalEdgeStyle;rounded=0;orthogonalLoop=1;jettySize=auto;html=1;endArrow=block;endFill=0;" edge="1" parent="1" source="Np0CVXmdSU2NpfKUSfFp-22" target="Np0CVXmdSU2NpfKUSfFp-30">
          <mxGeometry relative="1" as="geometry">
            <Array as="points">
              <mxPoint x="-220" y="270" />
              <mxPoint x="-220" y="390" />
            </Array>
          </mxGeometry>
        </mxCell>
        <mxCell id="Np0CVXmdSU2NpfKUSfFp-22" value="StrategyServerBase" style="rounded=1;whiteSpace=wrap;html=1;" vertex="1" parent="1">
          <mxGeometry x="-160" y="240" width="120" height="60" as="geometry" />
        </mxCell>
        <mxCell id="Np0CVXmdSU2NpfKUSfFp-23" value="LogUtil" style="rounded=0;whiteSpace=wrap;html=1;" vertex="1" parent="1">
          <mxGeometry x="280" y="60" width="120" height="60" as="geometry" />
        </mxCell>
        <mxCell id="Np0CVXmdSU2NpfKUSfFp-24" value="StrategyA" style="rounded=0;whiteSpace=wrap;html=1;fillColor=#f5f5f5;strokeColor=#666666;fontColor=#333333;" vertex="1" parent="1">
          <mxGeometry x="-400" y="240" width="120" height="60" as="geometry" />
        </mxCell>
        <mxCell id="Np0CVXmdSU2NpfKUSfFp-30" value="Executor" style="rounded=0;whiteSpace=wrap;html=1;" vertex="1" parent="1">
          <mxGeometry x="-280" y="350" width="120" height="60" as="geometry" />
        </mxCell>
        <mxCell id="Np0CVXmdSU2NpfKUSfFp-33" value="TradeServerBase" style="rounded=1;whiteSpace=wrap;html=1;" vertex="1" parent="1">
          <mxGeometry x="-160" y="585" width="120" height="60" as="geometry" />
        </mxCell>
        <mxCell id="Np0CVXmdSU2NpfKUSfFp-36" value="跨期套利：&lt;div&gt;(交易通道 交易机) 行情 - 套利策略 - 下单&lt;/div&gt;&lt;div&gt;(调参通道 个人机器) 行情? - web前端? - 后端? - 信号&lt;/div&gt;&lt;div&gt;&lt;br&gt;&lt;/div&gt;&lt;div&gt;&lt;br&gt;&lt;/div&gt;" style="shape=ellipse;whiteSpace=wrap;html=1;align=center;perimeter=ellipsePerimeter;" vertex="1" parent="1">
          <mxGeometry x="-890" y="140" width="360" height="270" as="geometry" />
        </mxCell>
      </root>
    </mxGraphModel>
  </diagram>
  <diagram id="_z2y7YqMUHIQpGYz76A4" name="股指套利">
    <mxGraphModel dx="1773" dy="644" grid="1" gridSize="10" guides="1" tooltips="1" connect="1" arrows="1" fold="1" page="1" pageScale="1" pageWidth="827" pageHeight="1169" math="0" shadow="0">
      <root>
        <mxCell id="0" />
        <mxCell id="1" parent="0" />
        <mxCell id="KyFD5nglN-JNJynjyuf0-22" value="" style="rounded=0;whiteSpace=wrap;html=1;fillColor=#eeeeee;strokeColor=#36393d;" vertex="1" parent="1">
          <mxGeometry x="-10" y="280" width="340" height="180" as="geometry" />
        </mxCell>
        <mxCell id="KyFD5nglN-JNJynjyuf0-18" value="" style="rounded=0;whiteSpace=wrap;html=1;fillColor=#eeeeee;strokeColor=#36393d;" vertex="1" parent="1">
          <mxGeometry x="-10" y="90" width="340" height="160" as="geometry" />
        </mxCell>
        <mxCell id="KyFD5nglN-JNJynjyuf0-12" value="行情" style="rounded=0;whiteSpace=wrap;html=1;" vertex="1" parent="1">
          <mxGeometry x="40" y="140" width="120" height="60" as="geometry" />
        </mxCell>
        <mxCell id="KyFD5nglN-JNJynjyuf0-17" value="" style="edgeStyle=orthogonalEdgeStyle;rounded=0;orthogonalLoop=1;jettySize=auto;html=1;startArrow=block;shape=flexArrow;" edge="1" parent="1" source="KyFD5nglN-JNJynjyuf0-13" target="KyFD5nglN-JNJynjyuf0-14">
          <mxGeometry relative="1" as="geometry" />
        </mxCell>
        <mxCell id="KyFD5nglN-JNJynjyuf0-24" style="edgeStyle=orthogonalEdgeStyle;rounded=0;orthogonalLoop=1;jettySize=auto;html=1;exitX=0.5;exitY=1;exitDx=0;exitDy=0;" edge="1" parent="1" source="KyFD5nglN-JNJynjyuf0-13" target="KyFD5nglN-JNJynjyuf0-16">
          <mxGeometry relative="1" as="geometry" />
        </mxCell>
        <mxCell id="KyFD5nglN-JNJynjyuf0-13" value="后端" style="rounded=0;whiteSpace=wrap;html=1;" vertex="1" parent="1">
          <mxGeometry x="160" y="140" width="120" height="60" as="geometry" />
        </mxCell>
        <mxCell id="KyFD5nglN-JNJynjyuf0-14" value="网页前端" style="rounded=0;whiteSpace=wrap;html=1;" vertex="1" parent="1">
          <mxGeometry x="440" y="140" width="120" height="60" as="geometry" />
        </mxCell>
        <mxCell id="KyFD5nglN-JNJynjyuf0-16" value="trader" style="rounded=0;whiteSpace=wrap;html=1;" vertex="1" parent="1">
          <mxGeometry x="160" y="340" width="120" height="60" as="geometry" />
        </mxCell>
        <mxCell id="KyFD5nglN-JNJynjyuf0-19" value="本地服务器" style="text;html=1;align=center;verticalAlign=middle;resizable=0;points=[];autosize=1;strokeColor=none;fillColor=none;" vertex="1" parent="1">
          <mxGeometry x="-10" y="90" width="80" height="30" as="geometry" />
        </mxCell>
        <mxCell id="KyFD5nglN-JNJynjyuf0-20" value="PC" style="text;html=1;align=center;verticalAlign=middle;resizable=0;points=[];autosize=1;strokeColor=none;fillColor=none;" vertex="1" parent="1">
          <mxGeometry x="440" y="110" width="40" height="30" as="geometry" />
        </mxCell>
        <mxCell id="KyFD5nglN-JNJynjyuf0-23" value="下单服务器" style="text;html=1;align=center;verticalAlign=middle;resizable=0;points=[];autosize=1;strokeColor=none;fillColor=none;" vertex="1" parent="1">
          <mxGeometry x="-10" y="280" width="80" height="30" as="geometry" />
        </mxCell>
      </root>
    </mxGraphModel>
  </diagram>
</mxfile>
